<svg xmlns="http://www.w3.org/2000/svg" xmlns:xlink="http://www.w3.org/1999/xlink" width="400" zoomAndPan="magnify" viewBox="0 0 300 149.999998" height="200" preserveAspectRatio="xMidYMid meet" version="1.0"><defs><g/><clipPath id="8dedf9109d"><path d="M 21.03125 37.230469 L 81 37.230469 L 81 112.980469 L 21.03125 112.980469 Z M 21.03125 37.230469 " clip-rule="nonzero"/></clipPath></defs><g clip-path="url(#8dedf9109d)"><path fill="#000000" d="M 79.3125 70.863281 C 79.21875 70.835938 79.117188 70.8125 79.015625 70.792969 C 77.796875 70.542969 76.566406 70.496094 75.332031 70.648438 C 74.941406 70.6875 74.546875 70.699219 74.125 70.726562 C 74.125 70.5 74.125 70.359375 74.125 70.21875 C 74.199219 68.980469 73.96875 67.796875 73.433594 66.671875 C 73.109375 65.910156 72.800781 65.136719 72.523438 64.351562 C 72.046875 62.992188 71.597656 61.628906 71.140625 60.261719 C 70.855469 59.515625 70.699219 58.746094 70.683594 57.949219 C 71.226562 57.722656 71.386719 57.222656 71.554688 56.753906 C 72.566406 54.097656 72.976562 51.347656 72.785156 48.507812 C 72.582031 45.671875 71.523438 43.226562 69.492188 41.242188 C 67.585938 39.378906 65.28125 38.175781 62.765625 37.390625 C 62.671875 37.347656 62.570312 37.324219 62.46875 37.316406 C 62.277344 37.339844 62.023438 37.339844 61.925781 37.453125 C 61.765625 37.640625 61.960938 37.824219 62.109375 37.964844 C 62.253906 38.105469 62.457031 38.285156 62.636719 38.445312 C 62.332031 38.460938 62.035156 38.425781 61.746094 38.335938 C 59.652344 37.710938 57.527344 37.566406 55.371094 37.914062 C 54.179688 38.117188 53.03125 38.398438 51.878906 38.695312 C 50.285156 39.15625 48.664062 39.304688 47.015625 39.144531 C 45.09375 38.894531 43.175781 38.882812 41.253906 39.117188 C 39.808594 39.265625 38.445312 39.683594 37.160156 40.371094 C 35.972656 41.054688 34.765625 41.726562 33.59375 42.417969 C 33.210938 42.648438 32.84375 42.902344 32.496094 43.175781 C 32.210938 43.363281 32.082031 43.625 32.105469 43.964844 C 32.152344 44.378906 31.921875 44.601562 31.640625 44.816406 C 30.75 45.511719 29.835938 46.195312 28.964844 46.90625 C 28.488281 47.285156 28.035156 47.691406 27.605469 48.117188 C 27.15625 48.566406 26.84375 49.078125 27.140625 49.757812 C 26.546875 50.261719 25.972656 50.738281 25.414062 51.25 C 23.746094 52.695312 22.574219 54.46875 21.90625 56.578125 C 21.519531 57.867188 21.285156 59.179688 21.195312 60.523438 C 21.019531 62.480469 21.125 64.417969 21.515625 66.339844 C 21.550781 66.5625 21.617188 66.777344 21.714844 66.980469 C 21.800781 67.144531 21.964844 67.355469 22.105469 67.371094 C 22.25 67.386719 22.4375 67.199219 22.5625 67.074219 C 22.679688 66.902344 22.78125 66.71875 22.859375 66.527344 C 22.96875 66.972656 23.066406 67.292969 23.125 67.621094 C 23.742188 70.878906 24.660156 74.050781 25.882812 77.132812 C 26.769531 79.421875 27.652344 81.710938 28.523438 83.996094 C 29.957031 87.613281 30.597656 91.367188 30.4375 95.253906 C 30.324219 97.625 30.3125 100.003906 30.253906 102.375 C 30.230469 102.597656 30.222656 102.820312 30.222656 103.042969 C 30.222656 103.132812 30.351562 103.214844 30.492188 103.390625 C 30.535156 103.152344 30.566406 103.058594 30.574219 102.960938 C 30.613281 102.007812 30.636719 101.054688 30.699219 100.101562 C 30.765625 99.101562 30.632812 98.0625 31.199219 97.148438 C 32.28125 94.039062 33.175781 90.878906 33.878906 87.664062 C 34.199219 86.09375 34.445312 84.503906 34.175781 82.890625 C 34.089844 82.332031 33.953125 81.785156 33.8125 81.101562 C 34.03125 81.335938 34.179688 81.492188 34.320312 81.652344 C 35.140625 82.589844 36.097656 83.371094 37.183594 83.984375 C 38.460938 84.671875 39.777344 84.980469 41.234375 84.253906 C 41.113281 84.835938 41.015625 85.347656 40.902344 85.859375 C 40.453125 87.679688 40.21875 89.527344 40.199219 91.402344 C 40.230469 93.726562 40.898438 95.8125 42.578125 97.476562 C 43.273438 98.160156 44.023438 98.773438 44.832031 99.316406 C 47.65625 101.21875 50.507812 103.078125 53.359375 104.933594 C 54.910156 105.941406 56.539062 106.800781 58.371094 107.191406 C 58.464844 107.222656 58.558594 107.253906 58.652344 107.292969 C 58.496094 108.246094 58.335938 109.164062 58.203125 110.085938 C 58.066406 111.007812 57.835938 111.894531 57.855469 112.816406 C 58.21875 112.875 58.222656 112.667969 58.246094 112.492188 C 58.367188 111.667969 58.480469 110.84375 58.601562 110.023438 C 58.738281 109.144531 58.882812 108.269531 59.019531 107.414062 C 59.078125 107.398438 59.136719 107.386719 59.195312 107.382812 C 59.292969 107.382812 59.394531 107.421875 59.492188 107.441406 C 61.339844 107.867188 63.210938 108.007812 65.101562 107.871094 C 66.480469 107.765625 67.816406 107.464844 69.109375 106.976562 C 71.191406 106.136719 72.300781 104.601562 72.496094 102.351562 C 72.585938 100.910156 72.558594 99.46875 72.414062 98.035156 C 72.164062 95.296875 72.40625 92.601562 73.136719 89.949219 C 73.25 89.476562 73.316406 88.996094 73.335938 88.511719 C 73.363281 88.175781 73.296875 87.863281 73.140625 87.566406 C 72.984375 87.273438 72.761719 87.042969 72.472656 86.878906 C 72.253906 86.730469 72.019531 86.609375 71.757812 86.457031 L 71.757812 85.644531 L 72.28125 85.683594 C 72.652344 85.726562 73.007812 85.664062 73.347656 85.503906 C 73.683594 85.34375 73.953125 85.105469 74.160156 84.789062 C 74.402344 84.453125 74.554688 84.082031 74.609375 83.671875 C 74.667969 83.261719 74.628906 82.859375 74.484375 82.472656 C 74.433594 82.308594 74.363281 82.144531 74.296875 81.953125 C 75.539062 81.890625 76.429688 81.257812 77.164062 80.367188 C 77.902344 79.484375 78.433594 78.488281 78.761719 77.382812 C 78.949219 76.742188 79.109375 76.09375 79.277344 75.441406 C 79.433594 74.742188 79.730469 74.109375 80.171875 73.542969 C 81.023438 72.476562 80.613281 71.246094 79.3125 70.863281 Z M 41.507812 82.667969 C 41.277344 83.90625 40.644531 84.222656 39.683594 84.242188 C 38.984375 84.25 38.320312 84.09375 37.695312 83.773438 C 36.691406 83.269531 35.796875 82.609375 35.019531 81.792969 C 33.746094 80.480469 32.65625 79.027344 31.746094 77.433594 C 31.039062 76.21875 30.644531 74.910156 30.558594 73.507812 C 30.402344 70.644531 32.140625 69.03125 33.84375 68.5625 C 34.730469 68.335938 35.609375 68.367188 36.476562 68.652344 C 37.714844 69.027344 38.804688 69.660156 39.75 70.542969 C 40.375 71.132812 40.875 71.816406 41.246094 72.59375 C 41.617188 73.367188 41.839844 74.1875 41.90625 75.042969 C 41.988281 75.789062 42.027344 76.535156 42.082031 77.289062 C 42.03125 79.097656 41.839844 80.890625 41.507812 82.667969 Z M 47.238281 68.121094 C 47.949219 67.394531 48.753906 66.785156 49.652344 66.304688 C 50.449219 65.859375 51.261719 65.445312 52.03125 64.972656 C 52.554688 64.65625 53.042969 64.300781 53.5 63.894531 C 54.054688 63.402344 53.988281 62.925781 53.363281 62.511719 C 53.144531 62.367188 52.902344 62.261719 52.675781 62.128906 C 51.820312 61.632812 51.296875 60.933594 51.394531 59.902344 C 51.417969 59.640625 51.394531 59.375 51.421875 59.113281 C 51.460938 58.449219 51.21875 57.917969 50.695312 57.515625 C 50.496094 57.351562 50.308594 57.175781 50.097656 56.992188 C 50.320312 56.6875 50.617188 56.503906 50.992188 56.441406 C 52.042969 56.144531 53.09375 55.84375 54.164062 55.636719 C 56.371094 55.160156 58.601562 54.976562 60.859375 55.097656 C 62.609375 55.167969 64.1875 55.726562 65.597656 56.765625 C 66.011719 57.09375 66.445312 57.390625 66.898438 57.664062 C 67.761719 58.167969 68.355469 58.09375 69.105469 57.4375 L 69.195312 57.355469 C 69.679688 56.933594 70.070312 57.058594 70.234375 57.679688 C 70.253906 57.777344 70.261719 57.878906 70.261719 57.980469 C 70.355469 59.078125 70.609375 60.136719 71.027344 61.160156 C 71.328125 61.972656 71.566406 62.816406 71.859375 63.636719 C 72.25 64.742188 72.644531 65.847656 73.082031 66.9375 C 73.539062 67.953125 73.75 69.015625 73.714844 70.128906 C 73.714844 70.332031 73.675781 70.53125 73.652344 70.757812 C 72.777344 70.875 71.910156 70.828125 71.050781 70.621094 C 69.316406 70.234375 67.59375 69.800781 65.855469 69.410156 C 63.582031 68.871094 61.277344 68.605469 58.941406 68.613281 C 58.777344 68.613281 58.617188 68.613281 58.453125 68.613281 C 58.394531 68.625 58.335938 68.644531 58.277344 68.667969 L 57.980469 69.625 L 46.796875 68.644531 C 46.964844 68.449219 47.089844 68.273438 47.238281 68.121094 Z M 71.550781 92.074219 C 71.417969 93.488281 70.914062 93.957031 69.511719 93.847656 C 68.382812 93.757812 67.265625 93.566406 66.140625 93.441406 C 65.359375 93.355469 64.574219 93.296875 63.789062 93.230469 L 63.378906 93.191406 C 63.433594 93.109375 63.5 93.03125 63.570312 92.960938 C 65.039062 91.933594 66.597656 91.074219 68.375 90.730469 C 69.164062 90.558594 69.945312 90.582031 70.71875 90.800781 C 71.390625 91.003906 71.621094 91.359375 71.550781 92.074219 Z M 74.152344 83.722656 C 73.949219 84.796875 73.113281 85.421875 72.046875 85.230469 C 71.453125 85.125 70.855469 84.972656 70.277344 84.808594 C 69.207031 84.46875 68.128906 84.433594 67.042969 84.703125 C 66.925781 84.730469 66.804688 84.75 66.6875 84.761719 C 65.675781 84.921875 65.003906 84.480469 64.71875 83.496094 C 64.65625 83.285156 64.753906 82.980469 64.335938 82.851562 C 64.300781 82.996094 64.28125 83.140625 64.277344 83.289062 C 64.289062 83.5625 64.351562 83.820312 64.46875 84.066406 C 64.585938 84.3125 64.746094 84.527344 64.949219 84.707031 C 65.152344 84.886719 65.382812 85.023438 65.640625 85.109375 C 65.898438 85.195312 66.164062 85.226562 66.4375 85.207031 C 66.71875 85.1875 66.996094 85.144531 67.273438 85.074219 C 68.074219 84.871094 68.875 84.871094 69.675781 85.074219 C 70.203125 85.203125 70.726562 85.351562 71.277344 85.496094 C 71.300781 85.761719 71.3125 85.996094 71.335938 86.273438 C 71.246094 86.28125 71.15625 86.28125 71.066406 86.273438 C 69.347656 85.871094 67.613281 85.921875 65.875 86.109375 C 64.230469 86.308594 62.679688 86.804688 61.222656 87.601562 C 59.972656 88.261719 58.699219 88.882812 57.429688 89.515625 C 55.863281 90.320312 54.199219 90.667969 52.441406 90.5625 C 51.578125 90.542969 50.785156 90.304688 50.050781 89.855469 C 49.316406 89.402344 48.746094 88.796875 48.335938 88.039062 C 47.867188 87.179688 47.53125 86.269531 47.324219 85.3125 C 46.664062 82.570312 45.988281 79.832031 45.398438 77.078125 C 44.894531 74.71875 45.203125 72.394531 45.992188 70.128906 C 46.035156 70.035156 46.082031 69.945312 46.128906 69.855469 C 50.027344 70.375 53.941406 70.691406 57.867188 70.808594 C 57.851562 71.039062 57.910156 71.246094 58.046875 71.433594 C 58.183594 71.621094 58.367188 71.738281 58.589844 71.785156 C 58.914062 71.886719 58.984375 72.1875 58.960938 72.480469 C 58.914062 73.027344 58.851562 73.574219 58.777344 74.113281 C 58.511719 75.589844 58.535156 77.0625 58.839844 78.53125 C 58.902344 78.785156 58.976562 79.035156 59.066406 79.285156 C 59.8125 81.414062 61.71875 82.082031 63.527344 81.59375 C 64.320312 81.378906 65.039062 81.015625 65.6875 80.511719 C 66.332031 80.003906 66.855469 79.390625 67.257812 78.667969 C 67.691406 77.867188 68.074219 77.042969 68.40625 76.195312 C 68.597656 75.75 68.742188 75.28125 68.917969 74.828125 C 68.988281 74.660156 69.070312 74.496094 69.160156 74.335938 C 69.269531 74.128906 69.4375 74.046875 69.667969 74.089844 C 69.894531 74.109375 69.96875 74.265625 70.023438 74.445312 C 70.496094 75.636719 70.957031 76.863281 71.457031 78.0625 C 71.964844 79.335938 72.636719 80.507812 73.480469 81.585938 C 73.972656 82.195312 74.3125 82.871094 74.152344 83.710938 Z M 74.152344 83.722656 " fill-opacity="1" fill-rule="nonzero"/></g><path fill="#000000" d="M 39.265625 80.898438 C 38.671875 80.898438 38.035156 80.972656 37.460938 80.84375 C 34.503906 80.15625 32.78125 78.191406 31.972656 75.347656 C 31.75 74.574219 31.707031 73.789062 31.847656 73 C 32.144531 71.242188 33.539062 70.082031 35.242188 70.167969 C 35.582031 70.148438 35.832031 70.289062 35.992188 70.589844 C 36.25 71.074219 36.546875 71.535156 36.761719 72.035156 C 36.96875 72.457031 37.050781 72.902344 37.003906 73.371094 C 36.957031 73.835938 36.789062 74.257812 36.503906 74.628906 C 36.121094 75.148438 35.675781 75.625 35.292969 76.148438 C 35 76.535156 34.75 76.945312 34.535156 77.378906 C 34.445312 77.539062 34.414062 77.710938 34.449219 77.894531 C 34.484375 78.078125 34.574219 78.226562 34.71875 78.34375 C 34.78125 78.234375 34.878906 78.140625 34.863281 78.078125 C 34.765625 77.589844 34.902344 77.1875 35.277344 76.863281 C 35.625 76.523438 35.992188 76.210938 36.382812 75.925781 C 36.765625 75.625 37.195312 75.390625 37.570312 75.085938 C 37.875 74.851562 38.105469 74.558594 38.269531 74.210938 C 38.429688 73.867188 38.507812 73.5 38.496094 73.117188 C 38.503906 72.308594 38.238281 71.601562 37.707031 70.992188 C 37.28125 70.460938 36.742188 70.089844 36.09375 69.882812 C 35.441406 69.679688 34.789062 69.671875 34.136719 69.863281 C 32.691406 70.234375 31.835938 71.242188 31.496094 72.679688 C 31.214844 73.949219 31.335938 75.183594 31.859375 76.375 C 32.980469 79.128906 34.929688 80.914062 37.941406 81.335938 C 38.507812 81.371094 39.066406 81.339844 39.625 81.242188 C 39.714844 81.242188 39.789062 81.066406 39.871094 80.96875 C 39.777344 80.914062 39.679688 80.871094 39.574219 80.84375 C 39.472656 80.832031 39.371094 80.902344 39.265625 80.898438 Z M 39.265625 80.898438 " fill-opacity="1" fill-rule="nonzero"/><path fill="#000000" d="M 39.914062 78.589844 C 39.742188 78.339844 39.554688 78.101562 39.371094 77.855469 C 38.855469 77.148438 38.371094 76.429688 38.371094 75.394531 C 38.210938 75.410156 38.058594 75.449219 37.910156 75.511719 C 37.371094 75.875 36.847656 76.257812 36.324219 76.632812 C 36.273438 76.667969 36.210938 76.707031 36.195312 76.757812 C 36.160156 76.847656 36.148438 76.941406 36.167969 77.035156 C 36.214844 77.101562 36.28125 77.132812 36.363281 77.128906 C 36.882812 76.894531 37.070312 77.300781 37.339844 77.597656 C 37.976562 78.300781 38.625 79 39.292969 79.683594 C 39.589844 79.984375 39.855469 80.019531 40.042969 79.855469 C 40.152344 79.757812 40.214844 79.632812 40.238281 79.488281 C 40.261719 79.34375 40.238281 79.203125 40.167969 79.074219 C 40.105469 78.902344 40.019531 78.742188 39.914062 78.589844 Z M 39.914062 78.589844 " fill-opacity="1" fill-rule="nonzero"/><g fill="#000000" fill-opacity="1"><g transform="translate(81.050585, 83.338077)"><g><path d="M 9.109375 -17.546875 C 11.304688 -17.546875 13.113281 -17.097656 14.53125 -16.203125 C 15.957031 -15.316406 16.691406 -13.992188 16.734375 -12.234375 L 16.734375 -11.9375 L 11.53125 -11.9375 L 11.53125 -12.03125 C 11.53125 -12.539062 11.347656 -12.960938 10.984375 -13.296875 C 10.617188 -13.628906 10.054688 -13.796875 9.296875 -13.796875 C 8.566406 -13.796875 8.003906 -13.6875 7.609375 -13.46875 C 7.210938 -13.25 7.015625 -12.984375 7.015625 -12.671875 C 7.015625 -12.210938 7.28125 -11.875 7.8125 -11.65625 C 8.351562 -11.4375 9.21875 -11.210938 10.40625 -10.984375 C 11.789062 -10.703125 12.929688 -10.40625 13.828125 -10.09375 C 14.722656 -9.78125 15.503906 -9.269531 16.171875 -8.5625 C 16.835938 -7.863281 17.179688 -6.914062 17.203125 -5.71875 C 17.203125 -3.675781 16.507812 -2.160156 15.125 -1.171875 C 13.75 -0.191406 11.910156 0.296875 9.609375 0.296875 C 6.910156 0.296875 4.8125 -0.148438 3.3125 -1.046875 C 1.820312 -1.953125 1.078125 -3.550781 1.078125 -5.84375 L 6.3125 -5.84375 C 6.3125 -4.976562 6.535156 -4.394531 6.984375 -4.09375 C 7.441406 -3.800781 8.148438 -3.65625 9.109375 -3.65625 C 9.804688 -3.65625 10.382812 -3.726562 10.84375 -3.875 C 11.300781 -4.03125 11.53125 -4.34375 11.53125 -4.8125 C 11.53125 -5.226562 11.273438 -5.539062 10.765625 -5.75 C 10.253906 -5.957031 9.425781 -6.179688 8.28125 -6.421875 C 6.875 -6.722656 5.707031 -7.035156 4.78125 -7.359375 C 3.863281 -7.679688 3.0625 -8.21875 2.375 -8.96875 C 1.695312 -9.726562 1.359375 -10.75 1.359375 -12.03125 C 1.359375 -13.925781 2.085938 -15.316406 3.546875 -16.203125 C 5.015625 -17.097656 6.867188 -17.546875 9.109375 -17.546875 Z M 9.109375 -17.546875 "/></g></g></g><g fill="#000000" fill-opacity="1"><g transform="translate(99.150115, 83.338077)"><g><path d="M 11.78125 -12.84375 L 11.78125 0 L 6.25 0 L 6.25 -12.84375 L 0.578125 -12.84375 L 0.578125 -17.25 L 17.421875 -17.25 L 17.421875 -12.84375 Z M 11.78125 -12.84375 "/></g></g></g><g fill="#000000" fill-opacity="1"><g transform="translate(117.249645, 83.338077)"><g><path d="M 2.109375 0 L 2.109375 -17.25 L 7.65625 -17.25 L 7.65625 0 Z M 2.109375 0 "/></g></g></g><g fill="#000000" fill-opacity="1"><g transform="translate(127.001327, 83.338077)"><g><path d="M 1.859375 -17.25 L 7.390625 -17.25 L 7.390625 -4.40625 L 16.25 -4.40625 L 16.25 0 L 1.859375 0 Z M 1.859375 -17.25 "/></g></g></g><g fill="#000000" fill-opacity="1"><g transform="translate(143.722075, 83.338077)"><g><path d="M 10.4375 -17.546875 C 13.40625 -17.546875 15.703125 -16.785156 17.328125 -15.265625 C 18.953125 -13.742188 19.765625 -11.53125 19.765625 -8.625 C 19.765625 -5.71875 18.953125 -3.503906 17.328125 -1.984375 C 15.703125 -0.460938 13.40625 0.296875 10.4375 0.296875 C 7.457031 0.296875 5.160156 -0.457031 3.546875 -1.96875 C 1.929688 -3.476562 1.125 -5.695312 1.125 -8.625 C 1.125 -11.550781 1.929688 -13.769531 3.546875 -15.28125 C 5.160156 -16.789062 7.457031 -17.546875 10.4375 -17.546875 Z M 10.4375 -13.421875 C 9.25 -13.421875 8.34375 -13.0625 7.71875 -12.34375 C 7.101562 -11.625 6.796875 -10.648438 6.796875 -9.421875 L 6.796875 -7.828125 C 6.796875 -6.609375 7.101562 -5.640625 7.71875 -4.921875 C 8.34375 -4.203125 9.25 -3.84375 10.4375 -3.84375 C 11.625 -3.84375 12.53125 -4.203125 13.15625 -4.921875 C 13.78125 -5.640625 14.09375 -6.609375 14.09375 -7.828125 L 14.09375 -9.421875 C 14.09375 -10.648438 13.78125 -11.625 13.15625 -12.34375 C 12.53125 -13.0625 11.625 -13.421875 10.4375 -13.421875 Z M 10.4375 -13.421875 "/></g></g></g><g fill="#000000" fill-opacity="1"><g transform="translate(164.60421, 83.338077)"><g/></g></g><g fill="#000000" fill-opacity="1"><g transform="translate(172.952047, 83.338077)"><g><path d="M 6.546875 0 L 0.421875 -17.25 L 6.34375 -17.25 L 9.8125 -5.71875 L 9.90625 -5.71875 L 13.390625 -17.25 L 19.0625 -17.25 L 12.96875 0 Z M 6.546875 0 "/></g></g></g><g fill="#000000" fill-opacity="1"><g transform="translate(192.455412, 83.338077)"><g><path d="M 2.109375 0 L 2.109375 -17.25 L 7.65625 -17.25 L 7.65625 0 Z M 2.109375 0 "/></g></g></g><g fill="#000000" fill-opacity="1"><g transform="translate(202.207094, 83.338077)"><g><path d="M 9.109375 -17.546875 C 11.304688 -17.546875 13.113281 -17.097656 14.53125 -16.203125 C 15.957031 -15.316406 16.691406 -13.992188 16.734375 -12.234375 L 16.734375 -11.9375 L 11.53125 -11.9375 L 11.53125 -12.03125 C 11.53125 -12.539062 11.347656 -12.960938 10.984375 -13.296875 C 10.617188 -13.628906 10.054688 -13.796875 9.296875 -13.796875 C 8.566406 -13.796875 8.003906 -13.6875 7.609375 -13.46875 C 7.210938 -13.25 7.015625 -12.984375 7.015625 -12.671875 C 7.015625 -12.210938 7.28125 -11.875 7.8125 -11.65625 C 8.351562 -11.4375 9.21875 -11.210938 10.40625 -10.984375 C 11.789062 -10.703125 12.929688 -10.40625 13.828125 -10.09375 C 14.722656 -9.78125 15.503906 -9.269531 16.171875 -8.5625 C 16.835938 -7.863281 17.179688 -6.914062 17.203125 -5.71875 C 17.203125 -3.675781 16.507812 -2.160156 15.125 -1.171875 C 13.75 -0.191406 11.910156 0.296875 9.609375 0.296875 C 6.910156 0.296875 4.8125 -0.148438 3.3125 -1.046875 C 1.820312 -1.953125 1.078125 -3.550781 1.078125 -5.84375 L 6.3125 -5.84375 C 6.3125 -4.976562 6.535156 -4.394531 6.984375 -4.09375 C 7.441406 -3.800781 8.148438 -3.65625 9.109375 -3.65625 C 9.804688 -3.65625 10.382812 -3.726562 10.84375 -3.875 C 11.300781 -4.03125 11.53125 -4.34375 11.53125 -4.8125 C 11.53125 -5.226562 11.273438 -5.539062 10.765625 -5.75 C 10.253906 -5.957031 9.425781 -6.179688 8.28125 -6.421875 C 6.875 -6.722656 5.707031 -7.035156 4.78125 -7.359375 C 3.863281 -7.679688 3.0625 -8.21875 2.375 -8.96875 C 1.695312 -9.726562 1.359375 -10.75 1.359375 -12.03125 C 1.359375 -13.925781 2.085938 -15.316406 3.546875 -16.203125 C 5.015625 -17.097656 6.867188 -17.546875 9.109375 -17.546875 Z M 9.109375 -17.546875 "/></g></g></g><g fill="#000000" fill-opacity="1"><g transform="translate(220.306624, 83.338077)"><g><path d="M 19.03125 -6.953125 C 19.03125 -4.585938 18.285156 -2.785156 16.796875 -1.546875 C 15.316406 -0.316406 13.203125 0.296875 10.453125 0.296875 C 7.710938 0.296875 5.59375 -0.316406 4.09375 -1.546875 C 2.601562 -2.785156 1.859375 -4.585938 1.859375 -6.953125 L 1.859375 -17.25 L 7.390625 -17.25 L 7.390625 -7.015625 C 7.390625 -6.046875 7.648438 -5.273438 8.171875 -4.703125 C 8.691406 -4.128906 9.445312 -3.84375 10.4375 -3.84375 C 11.414062 -3.84375 12.164062 -4.132812 12.6875 -4.71875 C 13.21875 -5.300781 13.484375 -6.066406 13.484375 -7.015625 L 13.484375 -17.25 L 19.03125 -17.25 Z M 19.03125 -6.953125 "/></g></g></g><g fill="#000000" fill-opacity="1"><g transform="translate(241.188759, 83.338077)"><g><path d="M 13.421875 0 L 12.6875 -2.4375 L 6.640625 -2.4375 L 5.921875 0 L 0.25 0 L 6.546875 -17.25 L 12.984375 -17.25 L 19.28125 0 Z M 7.796875 -6.296875 L 11.53125 -6.296875 L 9.734375 -12.4375 L 9.625 -12.4375 Z M 7.796875 -6.296875 "/></g></g></g><g fill="#000000" fill-opacity="1"><g transform="translate(260.692124, 83.338077)"><g><path d="M 1.859375 -17.25 L 7.390625 -17.25 L 7.390625 -4.40625 L 16.25 -4.40625 L 16.25 0 L 1.859375 0 Z M 1.859375 -17.25 "/></g></g></g><g fill="#000000" fill-opacity="1"><g transform="translate(99.083006, 49.755572)"><g><path d="M 5.84375 -4.921875 C 6.1875 -4.867188 6.5 -4.726562 6.78125 -4.5 C 7.070312 -4.269531 7.300781 -3.984375 7.46875 -3.640625 C 7.644531 -3.304688 7.734375 -2.945312 7.734375 -2.5625 C 7.734375 -2.082031 7.609375 -1.644531 7.359375 -1.25 C 7.109375 -0.863281 6.75 -0.554688 6.28125 -0.328125 C 5.8125 -0.109375 5.257812 0 4.625 0 L 1.0625 0 L 1.0625 -9.546875 L 4.484375 -9.546875 C 5.128906 -9.546875 5.679688 -9.4375 6.140625 -9.21875 C 6.597656 -9.007812 6.941406 -8.722656 7.171875 -8.359375 C 7.398438 -7.992188 7.515625 -7.582031 7.515625 -7.125 C 7.515625 -6.5625 7.359375 -6.09375 7.046875 -5.71875 C 6.742188 -5.351562 6.34375 -5.085938 5.84375 -4.921875 Z M 2.296875 -5.421875 L 4.40625 -5.421875 C 4.988281 -5.421875 5.4375 -5.554688 5.75 -5.828125 C 6.070312 -6.109375 6.234375 -6.488281 6.234375 -6.96875 C 6.234375 -7.457031 6.070312 -7.835938 5.75 -8.109375 C 5.4375 -8.378906 4.976562 -8.515625 4.375 -8.515625 L 2.296875 -8.515625 Z M 4.515625 -1.03125 C 5.128906 -1.03125 5.609375 -1.175781 5.953125 -1.46875 C 6.304688 -1.757812 6.484375 -2.164062 6.484375 -2.6875 C 6.484375 -3.21875 6.300781 -3.632812 5.9375 -3.9375 C 5.570312 -4.25 5.082031 -4.40625 4.46875 -4.40625 L 2.296875 -4.40625 L 2.296875 -1.03125 Z M 4.515625 -1.03125 "/></g></g></g><g fill="#000000" fill-opacity="1"><g transform="translate(116.624827, 49.755572)"><g><path d="M 6.703125 -2.125 L 2.53125 -2.125 L 1.765625 0 L 0.453125 0 L 3.90625 -9.5 L 5.34375 -9.5 L 8.78125 0 L 7.46875 0 Z M 6.34375 -3.140625 L 4.625 -7.96875 L 2.890625 -3.140625 Z M 6.34375 -3.140625 "/></g></g></g><g fill="#000000" fill-opacity="1"><g transform="translate(135.002438, 49.755572)"><g><path d="M 6.078125 0 L 3.8125 -3.90625 L 2.296875 -3.90625 L 2.296875 0 L 1.0625 0 L 1.0625 -9.546875 L 4.140625 -9.546875 C 4.859375 -9.546875 5.46875 -9.421875 5.96875 -9.171875 C 6.46875 -8.929688 6.835938 -8.597656 7.078125 -8.171875 C 7.328125 -7.753906 7.453125 -7.273438 7.453125 -6.734375 C 7.453125 -6.078125 7.257812 -5.5 6.875 -5 C 6.5 -4.5 5.9375 -4.164062 5.1875 -4 L 7.578125 0 Z M 2.296875 -4.90625 L 4.140625 -4.90625 C 4.816406 -4.90625 5.320312 -5.070312 5.65625 -5.40625 C 6 -5.738281 6.171875 -6.179688 6.171875 -6.734375 C 6.171875 -7.304688 6.003906 -7.742188 5.671875 -8.046875 C 5.335938 -8.359375 4.828125 -8.515625 4.140625 -8.515625 L 2.296875 -8.515625 Z M 2.296875 -4.90625 "/></g></g></g><g fill="#000000" fill-opacity="1"><g transform="translate(152.475757, 49.755572)"><g><path d="M 5.84375 -4.921875 C 6.1875 -4.867188 6.5 -4.726562 6.78125 -4.5 C 7.070312 -4.269531 7.300781 -3.984375 7.46875 -3.640625 C 7.644531 -3.304688 7.734375 -2.945312 7.734375 -2.5625 C 7.734375 -2.082031 7.609375 -1.644531 7.359375 -1.25 C 7.109375 -0.863281 6.75 -0.554688 6.28125 -0.328125 C 5.8125 -0.109375 5.257812 0 4.625 0 L 1.0625 0 L 1.0625 -9.546875 L 4.484375 -9.546875 C 5.128906 -9.546875 5.679688 -9.4375 6.140625 -9.21875 C 6.597656 -9.007812 6.941406 -8.722656 7.171875 -8.359375 C 7.398438 -7.992188 7.515625 -7.582031 7.515625 -7.125 C 7.515625 -6.5625 7.359375 -6.09375 7.046875 -5.71875 C 6.742188 -5.351562 6.34375 -5.085938 5.84375 -4.921875 Z M 2.296875 -5.421875 L 4.40625 -5.421875 C 4.988281 -5.421875 5.4375 -5.554688 5.75 -5.828125 C 6.070312 -6.109375 6.234375 -6.488281 6.234375 -6.96875 C 6.234375 -7.457031 6.070312 -7.835938 5.75 -8.109375 C 5.4375 -8.378906 4.976562 -8.515625 4.375 -8.515625 L 2.296875 -8.515625 Z M 4.515625 -1.03125 C 5.128906 -1.03125 5.609375 -1.175781 5.953125 -1.46875 C 6.304688 -1.757812 6.484375 -2.164062 6.484375 -2.6875 C 6.484375 -3.21875 6.300781 -3.632812 5.9375 -3.9375 C 5.570312 -4.25 5.082031 -4.40625 4.46875 -4.40625 L 2.296875 -4.40625 L 2.296875 -1.03125 Z M 4.515625 -1.03125 "/></g></g></g><g fill="#000000" fill-opacity="1"><g transform="translate(170.017578, 49.755572)"><g><path d="M 2.296875 -8.53125 L 2.296875 -5.34375 L 5.78125 -5.34375 L 5.78125 -4.3125 L 2.296875 -4.3125 L 2.296875 -1.03125 L 6.1875 -1.03125 L 6.1875 0 L 1.0625 0 L 1.0625 -9.5625 L 6.1875 -9.5625 L 6.1875 -8.53125 Z M 2.296875 -8.53125 "/></g></g></g><g fill="#000000" fill-opacity="1"><g transform="translate(186.18927, 49.755572)"><g><path d="M 6.703125 -2.125 L 2.53125 -2.125 L 1.765625 0 L 0.453125 0 L 3.90625 -9.5 L 5.34375 -9.5 L 8.78125 0 L 7.46875 0 Z M 6.34375 -3.140625 L 4.625 -7.96875 L 2.890625 -3.140625 Z M 6.34375 -3.140625 "/></g></g></g><g fill="#000000" fill-opacity="1"><g transform="translate(204.56688, 49.755572)"><g><path d="M 6.078125 0 L 3.8125 -3.90625 L 2.296875 -3.90625 L 2.296875 0 L 1.0625 0 L 1.0625 -9.546875 L 4.140625 -9.546875 C 4.859375 -9.546875 5.46875 -9.421875 5.96875 -9.171875 C 6.46875 -8.929688 6.835938 -8.597656 7.078125 -8.171875 C 7.328125 -7.753906 7.453125 -7.273438 7.453125 -6.734375 C 7.453125 -6.078125 7.257812 -5.5 6.875 -5 C 6.5 -4.5 5.9375 -4.164062 5.1875 -4 L 7.578125 0 Z M 2.296875 -4.90625 L 4.140625 -4.90625 C 4.816406 -4.90625 5.320312 -5.070312 5.65625 -5.40625 C 6 -5.738281 6.171875 -6.179688 6.171875 -6.734375 C 6.171875 -7.304688 6.003906 -7.742188 5.671875 -8.046875 C 5.335938 -8.359375 4.828125 -8.515625 4.140625 -8.515625 L 2.296875 -8.515625 Z M 2.296875 -4.90625 "/></g></g></g><g fill="#000000" fill-opacity="1"><g transform="translate(222.040199, 49.755572)"><g><path d="M 2.296875 -9.546875 L 2.296875 0 L 1.0625 0 L 1.0625 -9.546875 Z M 2.296875 -9.546875 "/></g></g></g><g fill="#000000" fill-opacity="1"><g transform="translate(234.553642, 49.755572)"><g><path d="M 6.703125 -2.125 L 2.53125 -2.125 L 1.765625 0 L 0.453125 0 L 3.90625 -9.5 L 5.34375 -9.5 L 8.78125 0 L 7.46875 0 Z M 6.34375 -3.140625 L 4.625 -7.96875 L 2.890625 -3.140625 Z M 6.34375 -3.140625 "/></g></g></g></svg>